{
  "accessors": [
    {
      "bufferView": 2,
      "componentType": 5126,
      "count": 1049,
      "max": [
        13.30013656616211,
        9.957488059997559,
        44.64911651611328
      ],
      "min": [
        -23.0765380859375,
        -10.33486557006836,
        -18.990982055664063
      ],
      "type": "VEC3"
    },
    {
      "bufferView": 2,
      "byteOffset": 12588,
      "componentType": 5126,
      "count": 1049,
      "max": [
        0.9998870491981506,
        0.9970210790634155,
        0.9957003593444824
      ],
      "min": [
        -0.9998664259910583,
        -0.9993162155151367,
        -0.81376051902771
      ],
      "type": "VEC3"
    },
    {
      "bufferView": 3,
      "componentType": 5126,
      "count": 1049,
      "max": [
        0.9964074492454529,
        0.9998930096626282,
        0.9998785257339478,
        1.0
      ],
      "min": [
        -0.9663767218589783,
        -0.9995412230491638,
        -0.9821101427078247,
        -1.0
      ],
      "type": "VEC4"
    },
    {
      "bufferView": 1,
      "componentType": 5126,
      "count": 1049,
      "max": [
        0.6076140999794006,
        0.9971272945404053
      ],
      "min": [
        0.0028726786840707064,
        0.0028727054595947266
      ],
      "type": "VEC2"
    },
    {
      "bufferView": 1,
      "byteOffset": 8392,
      "componentType": 5126,
      "count": 1049,
      "max": [
        0.6076140999794006,
        0.9971272945404053
      ],
      "min": [
        0.0028726786840707064,
        0.0028727054595947266
      ],
      "type": "VEC2"
    },
    {
      "bufferView": 1,
      "byteOffset": 16784,
      "componentType": 5126,
      "count": 1049,
      "max": [
        0.6076140999794006,
        0.9971272945404053
      ],
      "min": [
        0.0028726786840707064,
        0.0028727054595947266
      ],
      "type": "VEC2"
    },
    {
      "bufferView": 0,
      "componentType": 5125,
      "count": 5295,
      "type": "SCALAR"
    }
  ],
  "asset": {
    "extras": {
      "author": "DJMaesen (https://sketchfab.com/bumstrum)",
      "license": "CC-BY-4.0 (http://creativecommons.org/licenses/by/4.0/)",
      "source": "https://sketchfab.com/3d-models/giants-hand-9c334165a98e423c952961821f9d3a82",
      "title": "giants' hand"
    },
    "generator": "Sketchfab-12.66.0",
    "version": "2.0"
  },
  "bufferViews": [
    {
      "buffer": 0,
      "byteLength": 21180,
      "name": "floatBufferViews",
      "target": 34963
    },
    {
      "buffer": 0,
      "byteLength": 25176,
      "byteOffset": 21180,
      "byteStride": 8,
      "name": "floatBufferViews",
      "target": 34962
    },
    {
      "buffer": 0,
      "byteLength": 25176,
      "byteOffset": 46356,
      "byteStride": 12,
      "name": "floatBufferViews",
      "target": 34962
    },
    {
      "buffer": 0,
      "byteLength": 16784,
      "byteOffset": 71532,
      "byteStride": 16,
      "name": "floatBufferViews",
      "target": 34962
    }
  ],
  "buffers": [
    {
      "byteLength": 88316,
      "uri": "scene.bin"
    }
  ],
  "extensionsRequired": [
    "KHR_materials_pbrSpecularGlossiness"
  ],
  "extensionsUsed": [
    "KHR_materials_pbrSpecularGlossiness"
  ],
  "images": [
    {
      "uri": "textures/material_diffuse.jpeg"
    },
    {
      "uri": "textures/material_specularGlossiness.png"
    },
    {
      "uri": "textures/material_normal.png"
    }
  ],
  "materials": [
    {
      "doubleSided": true,
      "extensions": {
        "KHR_materials_pbrSpecularGlossiness": {
          "diffuseFactor": [
            1.0,
            1.0,
            1.0,
            1.0
          ],
          "diffuseTexture": {
            "index": 0
          },
          "glossinessFactor": 0.6236661585,
          "specularFactor": [
            0.1480564024,
            0.1480564024,
            0.1480564024
          ],
          "specularGlossinessTexture": {
            "index": 1
          }
        }
      },
      "name": "material",
      "normalTexture": {
        "index": 2
      }
    }
  ],
  "meshes": [
    {
      "name": "Polygon_Mat_0",
      "primitives": [
        {
          "attributes": {
            "NORMAL": 1,
            "POSITION": 0,
            "TANGENT": 2,
            "TEXCOORD_0": 3,
            "TEXCOORD_1": 4,
            "TEXCOORD_2": 5
          },
          "indices": 6,
          "material": 0,
          "mode": 4
        }
      ]
    }
  ],
  "nodes": [
    {
      "children": [
        1
      ],
      "matrix": [
        1.0,
        0.0,
        0.0,
        0.0,
        0.0,
        2.220446049250313e-16,
        -1.0,
        0.0,
        0.0,
        1.0,
        2.220446049250313e-16,
        0.0,
        0.0,
        0.0,
        0.0,
        1.0
      ],
      "name": "Sketchfab_model"
    },
    {
      "children": [
        2
      ],
      "matrix": [
        1.0,
        0.0,
        0.0,
        0.0,
        0.0,
        0.0,
        1.0,
        0.0,
        0.0,
        -1.0,
        0.0,
        0.0,
        0.0,
        0.0,
        0.0,
        1.0
      ],
      "name": "400d200315464e7b8c2fccfd2e43f087.fbx"
    },
    {
      "children": [
        3
      ],
      "name": "RootNode"
    },
    {
      "children": [
        4
      ],
      "matrix": [
        0.8913338360692729,
        -0.23436887666720402,
        -0.38806600254053114,
        0.0,
        0.4533475407212822,
        0.46079638937196155,
        0.7629827618391709,
        0.0,
        -1.3877787807814457e-16,
        -0.8560011198541253,
        0.5169739672444672,
        0.0,
        0.0,
        0.0,
        0.0,
        1.0
      ],
      "name": "Polygon"
    },
    {
      "mesh": 0,
      "name": "Polygon_Mat_0"
    }
  ],
  "samplers": [
    {
      "magFilter": 9729,
      "minFilter": 9987,
      "wrapS": 10497,
      "wrapT": 10497
    }
  ],
  "scene": 0,
  "scenes": [
    {
      "name": "Sketchfab_Scene",
      "nodes": [
        0
      ]
    }
  ],
  "textures": [
    {
      "sampler": 0,
      "source": 0
    },
    {
      "sampler": 0,
      "source": 1
    },
    {
      "sampler": 0,
      "source": 2
    }
  ]
}
